PathFileType	4	(X/Y/Z)	7_coords_data.trc
DataRate	CameraRate	NumFrames	NumMarkers	Units	OrigDataRate	OrigDataStartFrame	OrigNumFrames
30.0	30.0	7	21	m	30.0	33	86
Frame#	Time	THUMB_TIP	THUMB_IP	THUMB_MCP	THUMB_CMC	INDEX_TIP	INDEX_DIP	INDEX_PIP	INDEX_MCP	MIDDLE_TIP	MIDDLE_DIP	MIDDLE_PIP	MIDDLE_MCP	RING_TIP	RING_DIP	RING_PIP	RING_MCP	PINKY_TIP	PINKY_DIP	PINKY_PIP	PINKY_MCP	WRIST
X1	Y1	Z1	X2	Y2	Z2	X3	Y3	Z3	X4	Y4	Z4	X5	Y5	Z5	X6	Y6	Z6	X7	Y7	Z7	X8	Y8	Z8	X9	Y9	Z9	X10	Y10	Z10	X11	Y11	Z11	X12	Y12	Z12	X13	Y13	Z13	X14	Y14	Z14	X15	Y15	Z15	X16	Y16	Z16	X17	Y17	Z17	X18	Y18	Z18	X19	Y19	Z19	X20	Y20	Z20	X21	Y21	Z21
32	1.0666666666666667	0.021507600784301757	0.029429899215698243	0.9456640014648438	0.028788299560546876	0.033455699920654294	0.9683519897460937	0.02536639976501465	0.034692501068115236	0.9954630126953125	0.002382519960403442	0.04465670013427735	1.0093499755859374	0.03776139831542969	-0.07511609649658203	0.9429609985351562	0.03583140182495117	-0.05651430130004883	0.9555579833984374	0.03159749984741211	-0.03964170074462891	0.9674970092773437	0.020241300582885743	-0.01001319980621338	0.987072021484375	0.028106000900268553	0.020288000106811522	0.9660759887695313	0.025236099243164063	0.009580650329589845	0.9496519775390625	0.013905099868774414	-0.012545900344848633	0.9464520263671875	-0.005696619987487793	-0.014235899925231934	0.9837960205078125	0.012475799560546875	0.029696500778198243	0.9566339721679687	0.005559969902038575	0.015573599815368652	0.945	-0.009104470252990722	-0.005005129814147949	0.9434190063476563	-0.023795299530029297	-0.0044507598876953125	0.9758489990234375	-0.058460201263427734	-0.034166698455810544	0.9334290161132812	-0.05065499877929688	-0.01943429946899414	0.9440999755859375	-0.04346009826660156	-0.0076903200149536135	0.9535440063476562	-0.03209700012207031	0.012028699874877929	0.969406982421875	-0.02563599967956543	0.040287498474121095	1.0308399658203125
33	1.1	0.020909000396728515	0.029309400558471678	0.9456530151367187	0.028307899475097657	0.03326800155639648	0.96810400390625	0.024794200897216796	0.034500900268554686	0.9955120239257812	0.0020325899124145506	0.0441338005065918	1.0095499877929688	0.03718370056152344	-0.07527020263671876	0.9427459716796875	0.03525579833984375	-0.05672489929199219	0.9553809814453125	0.03112779998779297	-0.039918498992919924	0.9673250122070313	0.019677799224853517	-0.010251700401306152	0.9871690063476563	0.027605499267578125	0.020047800064086914	0.9660700073242188	0.024703399658203125	0.009394049644470215	0.9495560302734375	0.013357399940490722	-0.012714200019836426	0.9464310302734374	-0.006145860195159912	-0.014479299545288087	0.9837769775390625	0.011914299964904786	0.029434999465942382	0.9565349731445313	0.005105889797210693	0.015370400428771972	0.9450889892578125	-0.009655220031738281	-0.005237080097198486	0.9435029907226562	-0.024278900146484376	-0.004679999828338623	0.9758770141601563	-0.059046199798583984	-0.03433459854125977	0.9335670166015625	-0.05122549819946289	-0.01966710090637207	0.9441610107421875	-0.0439994010925293	-0.007960340023040772	0.9535679931640625	-0.03267689895629883	0.011703100204467774	0.9695269775390625	-0.026014699935913085	0.039917701721191405	1.031
34	1.1333333333333333	0.020297300338745116	0.02914870071411133	0.94581298828125	0.02763710021972656	0.03303889846801758	0.9684409790039062	0.024184499740600586	0.034190498352050784	0.9953099975585937	0.001361780047416687	0.043963001251220706	1.00952001953125	0.03625630187988281	-0.07558760070800781	0.9424580078125	0.034420799255371094	-0.05706650161743164	0.9550999755859375	0.030403299331665037	-0.04024089813232422	0.9671329956054687	0.019300100326538085	-0.010539699554443359	0.9870189819335937	0.026993900299072265	0.01988260078430176	0.9660750122070313	0.02407900047302246	0.009302140235900879	0.94947900390625	0.012786999702453613	-0.01276420021057129	0.9463870239257812	-0.006550559997558594	-0.014850199699401856	0.98339697265625	0.011218999862670899	0.029309200286865233	0.9569429931640625	0.0043935198783874516	0.01523770046234131	0.9451069946289062	-0.010227499961853027	-0.005215330123901367	0.943280029296875	-0.024848600387573243	-0.005074079990386963	0.9758629760742188	-0.05964410018920899	-0.03457360076904297	0.9335120239257813	-0.05182109832763672	-0.01990609931945801	0.9441439819335937	-0.04462810134887695	-0.008218669891357422	0.9535709838867188	-0.033289901733398436	0.011352399826049804	0.9695889892578125	-0.026606000900268555	0.03944990158081055	1.0311800537109375
35	1.1666666666666667	0.019380699157714842	0.029250600814819335	0.9458820190429688	0.026918399810791017	0.03301190185546875	0.9685	0.023575199127197265	0.03395449829101563	0.9957520141601562	0.0007144889831542961	0.043527400970458985	1.0096199951171876	0.0353218994140625	-0.07568979644775391	0.941843994140625	0.033538799285888675	-0.05717459869384765	0.954572021484375	0.02958180046081543	-0.0403765983581543	0.9667219848632812	0.018584800720214845	-0.010870100021362305	0.9868079833984374	0.026264200210571288	0.019780799865722655	0.9662639770507813	0.023341800689697264	0.009368860244750976	0.9492570190429688	0.0120024995803833	-0.012661100387573242	0.9461179809570313	-0.007346099853515625	-0.015093299865722656	0.983448974609375	0.01039229965209961	0.0292593994140625	0.9569840087890625	0.0035709199905395506	0.015339599609375	0.9450050048828125	-0.011093700408935547	-0.005229990005493164	0.9431690063476562	-0.025624000549316406	-0.005337860107421875	0.9760120239257812	-0.06044760131835938	-0.03440119934082031	0.9332509765625	-0.05261890029907226	-0.019812400817871095	0.943958984375	-0.04538639831542969	-0.008246350288391113	0.9534660034179687	-0.03402460098266601	0.011178600311279296	0.9696829833984375	-0.027290599822998047	0.03903829956054688	1.0314300537109375
36	1.2	0.018542699813842774	0.029001100540161133	0.946031982421875	0.026214599609375	0.03260979843139648	0.9683259887695312	0.022902299880981445	0.03354019927978515	0.9956240234375	3.1701799482107e-05	0.04300669860839844	1.0096900024414062	0.03448109817504883	-0.07608760070800781	0.941822021484375	0.032728900909423826	-0.057575801849365234	0.9545750122070312	0.02878890037536621	-0.040773200988769534	0.96668798828125	0.017849199295043944	-0.011222800254821778	0.9866749877929688	0.025527299880981444	0.019499300003051757	0.9660709838867187	0.02256949996948242	0.009039899826049805	0.9493109741210938	0.01121150016784668	-0.012977299690246582	0.9461119995117188	-0.008082850456237793	-0.015506500244140626	0.9834829711914063	0.009589810371398926	0.028900899887084962	0.9570390014648438	0.002759769916534424	0.015083200454711914	0.9452310180664063	-0.01189579963684082	-0.005516300201416016	0.9432230224609375	-0.026316299438476562	-0.005632319927215576	0.9757059936523438	-0.06124900054931641	-0.03458980178833008	0.933177978515625	-0.0534025993347168	-0.020052799224853514	0.9439650268554688	-0.04618399810791016	-0.008496990203857422	0.95356201171875	-0.03478519821166992	0.01090999984741211	0.9697310180664063	-0.02801070022583008	0.03853810119628906	1.0314599609375
37	1.2333333333333334	0.01788319969177246	0.02872170066833496	0.9459149780273437	0.02556480026245117	0.03232260131835937	0.9684119873046875	0.02219420051574707	0.033122501373291015	0.9958880004882813	-0.0007553989887237541	0.042788898468017575	1.0099299926757812	0.03343669891357422	-0.076518798828125	0.9416669921875	0.031760499954223635	-0.05801850128173828	0.9544520263671875	0.027888999938964844	-0.04117630004882813	0.9665679931640625	0.017121599197387694	-0.011544500350952148	0.9865460205078125	0.024769500732421876	0.01919610023498535	0.9660670166015625	0.021883899688720704	0.008814419746398926	0.94922802734375	0.01049370002746582	-0.013171699523925781	0.94597900390625	-0.008817170143127441	-0.015789999961853027	0.9833709716796875	0.009088720321655273	0.02884499931335449	0.9570189819335938	0.002171089887619018	0.014948399543762207	0.9450579833984375	-0.012536399841308594	-0.0056218400001525875	0.9429760131835937	-0.026992000579833985	-0.005936299800872803	0.9756480102539062	-0.06183119964599609	-0.034540199279785154	0.9327490234375	-0.05400410079956055	-0.020074899673461915	0.943614013671875	-0.04680820083618164	-0.008531140327453614	0.9532789916992187	-0.03544660186767578	0.010697600364685058	0.9694860229492187	-0.02879290008544922	0.03812250137329101	1.0315699462890624
38	1.2666666666666666	0.017266599655151368	0.028628000259399412	0.9458289794921875	0.024807899475097657	0.03214509963989258	0.9683400268554687	0.021704599380493163	0.032850399017333984	0.99572998046875	-0.001307039976119995	0.04242380142211914	1.0098400268554688	0.03201279830932617	-0.07680599975585937	0.9411160278320313	0.030538999557495117	-0.05831060028076172	0.9539869995117187	0.026888900756835938	-0.0414818000793457	0.9661530151367187	0.01646619987487793	-0.011829500198364257	0.9862449951171876	0.024100799560546875	0.01899049949645996	0.9658319702148438	0.021201099395751953	0.00864643955230713	0.9491530151367188	0.009853879928588867	-0.013293700218200684	0.9457410278320313	-0.009334369659423828	-0.016101400375366212	0.9827730102539063	0.008262849807739258	0.028644100189208984	0.9570059814453125	0.0013717000484466551	0.014780400276184082	0.9447659912109375	-0.01330840015411377	-0.005726699829101563	0.942739990234375	-0.027703599929809572	-0.00616786003112793	0.9755490112304688	-0.0625973014831543	-0.034502799987792966	0.9325670166015625	-0.054735298156738284	-0.02008880043029785	0.94343798828125	-0.047498001098632815	-0.008594019889831543	0.953052001953125	-0.036131401062011716	0.010518199920654297	0.9693389892578125	-0.029321599960327148	0.037754798889160154	1.0314300537109375
